<svg width="1600" height="760" viewBox="0 0 1600 760" fill="none" xmlns="http://www.w3.org/2000/svg">
  <rect width="1600" height="760" fill="#F6F7FB"/>
  <path d="M0 0H1600V420C1398.55 482.323 1183.5 506.65 954.84 492.98C718.851 478.879 400.571 411.263 0 290.13V0Z" fill="url(#paint0_linear_42_3)"/>
  <path d="M0 525C163.5 463.667 373.833 455.333 631 500C888.167 544.667 1211.17 632 1600 762H0V525Z" fill="#CBD4FF" fill-opacity="0.62"/>
  <path d="M1019.5 760C1146.83 629.5 1340.33 590 1600 641.5V760H1019.5Z" fill="#B7C3FF" fill-opacity="0.55"/>
  <circle cx="1357" cy="141" r="186" fill="#C8D1FF" fill-opacity="0.72"/>
  <circle cx="215" cy="108" r="136" fill="#DFE5FF" fill-opacity="0.9"/>
  <path d="M472 162L511.5 230H590.5L630 162L590.5 94H511.5L472 162Z" fill="#6D81EA" fill-opacity="0.95"/>
  <path d="M498 200L525.5 246H578.5L606 200L578.5 154H525.5L498 200Z" fill="#7B8EF0" fill-opacity="0.38"/>
  <defs>
    <linearGradient id="paint0_linear_42_3" x1="800" y1="0" x2="800" y2="493.98" gradientUnits="userSpaceOnUse">
      <stop stop-color="#E9ECFF"/>
      <stop offset="0.32" stop-color="#D9DEFF"/>
      <stop offset="1" stop-color="#7C8EF0"/>
    </linearGradient>
  </defs>
</svg>
